# xmcd
# 
# Track frame offsets:
#     150
#     18982
#     43635
#     62360
# 
# Disc length: 1086
# 
# Revision: 0
# Processed by: cddbd v1.5.2PL0 Copyright (c) Steve Scherf et al.
# Submitted via: BonkEnc v1.0
# 
DISCID=26043c04
DTITLE=Xola - Ichiro
DYEAR=0
DGENRE=
TTITLE0=Ichiro! version 2002
TTITLE1=Ichiro! club groove remix
TTITLE2=Ichiro! mad flava remix
TTITLE3=Ichiro! original version
EXTD=
EXTT0=
EXTT1=
EXTT2=
EXTT3=
PLAYORDER=
